{
  "accessors": [
    {
      "bufferView": 2,
      "componentType": 5126,
      "count": 65534,
      "max": [
        1.8130300045013428,
        3.198740005493164,
        0.4097769856452942
      ],
      "min": [
        -1.8782600164413452,
        -3.974760055541992,
        -0.4201819896697998
      ],
      "type": "VEC3"
    },
    {
      "bufferView": 2,
      "byteOffset": 786408,
      "componentType": 5126,
      "count": 65534,
      "max": [
        0.9998934864997864,
        0.9988322854042053,
        1.0
      ],
      "min": [
        -0.9998255968093872,
        -0.9997267127037048,
        -0.9992337226867676
      ],
      "type": "VEC3"
    },
    {
      "bufferView": 1,
      "componentType": 5126,
      "count": 65534,
      "max": [
        0.9999930262565613,
        0.9956030249595642
      ],
      "min": [
        1.898620030260645e-05,
        0.00042019199463538826
      ],
      "type": "VEC2"
    },
    {
      "bufferView": 0,
      "componentType": 5125,
      "count": 259176,
      "type": "SCALAR"
    },
    {
      "bufferView": 2,
      "byteOffset": 1572816,
      "componentType": 5126,
      "count": 41624,
      "max": [
        1.8091299533843994,
        3.1650099754333496,
        0.34658101201057434
      ],
      "min": [
        -1.8447099924087524,
        -3.884850025177002,
        -0.4178040027618408
      ],
      "type": "VEC3"
    },
    {
      "bufferView": 2,
      "byteOffset": 2072304,
      "componentType": 5126,
      "count": 41624,
      "max": [
        0.9999467134475708,
        0.998927891254425,
        0.9999999403953552
      ],
      "min": [
        -0.9999930262565613,
        -0.9989171624183655,
        -0.9522169232368469
      ],
      "type": "VEC3"
    },
    {
      "bufferView": 1,
      "byteOffset": 524272,
      "componentType": 5126,
      "count": 41624,
      "max": [
        0.9921889901161194,
        0.9957730174064636
      ],
      "min": [
        0.016621699556708336,
        0.00017449799634050578
      ],
      "type": "VEC2"
    },
    {
      "bufferView": 0,
      "byteOffset": 1036704,
      "componentType": 5125,
      "count": 174342,
      "type": "SCALAR"
    }
  ],
  "asset": {
    "extras": {
      "author": "SPLEEN VISION (https://sketchfab.com/spleen.vision)",
      "license": "CC-BY-4.0 (http://creativecommons.org/licenses/by/4.0/)",
      "source": "https://sketchfab.com/3d-models/muddy-road-with-tire-tracks-23de5f8d88ee42308d53eaae4accaf43",
      "title": "muddy road with tire tracks"
    },
    "generator": "Sketchfab-12.66.0",
    "version": "2.0"
  },
  "bufferViews": [
    {
      "buffer": 0,
      "byteLength": 1734072,
      "name": "floatBufferViews",
      "target": 34963
    },
    {
      "buffer": 0,
      "byteLength": 857264,
      "byteOffset": 1734072,
      "byteStride": 8,
      "name": "floatBufferViews",
      "target": 34962
    },
    {
      "buffer": 0,
      "byteLength": 2571792,
      "byteOffset": 2591336,
      "byteStride": 12,
      "name": "floatBufferViews",
      "target": 34962
    }
  ],
  "buffers": [
    {
      "byteLength": 5163128,
      "uri": "scene.bin"
    }
  ],
  "extensionsUsed": [
    "KHR_materials_unlit"
  ],
  "images": [
    {
      "uri": "textures/textured_0_baseColor.jpeg"
    }
  ],
  "materials": [
    {
      "doubleSided": true,
      "extensions": {
        "KHR_materials_unlit": {}
      },
      "name": "textured_0",
      "pbrMetallicRoughness": {
        "baseColorTexture": {
          "index": 0
        },
        "metallicFactor": 0.0
      }
    }
  ],
  "meshes": [
    {
      "name": "Object_0",
      "primitives": [
        {
          "attributes": {
            "NORMAL": 1,
            "POSITION": 0,
            "TEXCOORD_0": 2
          },
          "indices": 3,
          "material": 0,
          "mode": 4
        }
      ]
    },
    {
      "name": "Object_1",
      "primitives": [
        {
          "attributes": {
            "NORMAL": 5,
            "POSITION": 4,
            "TEXCOORD_0": 6
          },
          "indices": 7,
          "material": 0,
          "mode": 4
        }
      ]
    }
  ],
  "nodes": [
    {
      "children": [
        1
      ],
      "matrix": [
        0.582689642906189,
        0.0,
        0.0,
        0.0,
        0.0,
        1.293830915530123e-16,
        -0.582689642906189,
        0.0,
        0.0,
        0.582689642906189,
        1.293830915530123e-16,
        0.0,
        0.0,
        0.0,
        0.0,
        1.0
      ],
      "name": "Sketchfab_model"
    },
    {
      "children": [
        2,
        3
      ],
      "name": "textured.obj.cleaner.materialmerger.gles"
    },
    {
      "mesh": 0,
      "name": "Object_2"
    },
    {
      "mesh": 1,
      "name": "Object_3"
    }
  ],
  "samplers": [
    {
      "magFilter": 9729,
      "minFilter": 9987,
      "wrapS": 10497,
      "wrapT": 10497
    }
  ],
  "scene": 0,
  "scenes": [
    {
      "name": "Sketchfab_Scene",
      "nodes": [
        0
      ]
    }
  ],
  "textures": [
    {
      "sampler": 0,
      "source": 0
    }
  ]
}
